# xmcd CD database file generated by Grip 2.91
# 
# Track frame offsets:
#       150
#       36775
#       51967
#       66652
#       83577
#       100457
#       113062
#       129687
#       147197
#       163650
#       173845
#       189517
#       206415
#       230520
# 
# Disc length: 3323 seconds
# 
# Revision: 3
# Processed by: cddbd v1.4b41PL1 Copyright (c) Steve Scherf et al.
# Submitted via: Grip 2.91
# 
DISCID=c70cf90e
DTITLE=Junior Parker - Funny How Time Slips Away
DYEAR=1900
DGENRE=
TTITLE0=Funny How Time Slips Away
TTITLE1=Love Ain't Nothing But A Business Goin' On
TTITLE2=The Outside Man
TTITLE3=Darling Depend On Me
TTITLE4=Taxman
TTITLE5=The River's Invitation
TTITLE6=I Wonder Where Our Love Has Gone
TTITLE7=Just To Hold My Hand
TTITLE8=You Know I Love You
TTITLE9=Lady Madonna
TTITLE10=Tomorrow Never Knows
TTITLE11=Don't Let The Sun Catch You Cryin'
TTITLE12=No One Knows (What Goes On When The Door Is Closed)
TTITLE13=Don't Throw Your Love On Me So Strong
EXTD=
EXTT0=
EXTT1=
EXTT2=
EXTT3=
EXTT4=
EXTT5=
EXTT6=
EXTT7=
EXTT8=
EXTT9=
EXTT10=
EXTT11=
EXTT12=
EXTT13=
PLAYORDER=
